<svg width="404" height="429" viewBox="0 0 404 429" fill="none" xmlns="http://www.w3.org/2000/svg">
<path d="M389.954 238.462C394.14 236.234 397.659 232.811 400.12 228.578C402.579 224.344 403.882 219.468 403.882 214.492C403.882 209.517 402.579 204.641 400.12 200.407C397.659 196.174 394.14 192.751 389.954 190.521L36.6464 2.83414C32.2657 0.505301 27.3417 -0.418637 22.4752 0.175028C17.6087 0.768693 13.01 2.8543 9.24009 6.17742C5.47019 9.50056 2.69208 13.9175 1.24461 18.8895C-0.202852 23.8616 -0.257097 29.1738 1.08852 34.1779L37.1511 168.24C38.6595 173.843 41.8451 178.772 46.2257 182.28C50.6062 185.787 55.9431 187.682 61.4283 187.68H176.784C183.476 187.68 189.895 190.505 194.628 195.533C199.36 200.561 202.019 207.381 202.019 214.492C202.019 221.604 199.36 228.424 194.628 233.452C189.895 238.48 183.476 241.305 176.784 241.305H61.4283C55.9431 241.301 50.6062 243.198 46.2257 246.704C41.8451 250.212 38.6595 255.14 37.1511 260.744L1.11373 394.806C-0.234584 399.809 -0.183563 405.12 1.26048 410.092C2.70453 415.065 5.47925 419.484 9.24619 422.81C13.0131 426.135 17.6095 428.224 22.4749 428.822C27.3402 429.42 32.2643 428.502 36.6464 426.177L389.954 238.49V238.462Z" fill="#0EA9B0"/>
</svg>
