<svg width="293" height="390" viewBox="0 0 293 390" fill="none" xmlns="http://www.w3.org/2000/svg">
<g clip-path="url(#clip0_305_55)">
<path d="M276.731 0H16.2607C7.29144 0 0 7.03496 0 15.6977V374.265C0 381.301 4.50794 387.196 11.4808 389.259C18.5098 391.32 25.6326 388.916 29.7282 383.074L144.152 220.256C145.614 218.158 147.376 218.158 148.838 220.256L263.272 383.074C266.401 387.522 271.304 390 276.561 390C278.192 390 279.85 389.764 281.51 389.259C288.492 387.196 293 381.301 293 374.265V15.6977C293 7.03515 285.7 0 276.731 0ZM196.224 55.6653H176.083C172.372 55.6653 169.363 52.7717 169.363 49.1909C169.363 45.6099 172.372 42.7165 176.083 42.7165H196.224C199.935 42.7165 202.944 45.6099 202.944 49.1909C202.944 52.7717 199.935 55.6653 196.224 55.6653ZM150.319 55.6653H53.6739C49.9626 55.6653 46.954 52.7717 46.954 49.1909C46.954 45.6099 49.9626 42.7165 53.6739 42.7165H150.319C154.031 42.7165 157.039 45.6099 157.039 49.1909C157.039 52.7717 154.031 55.6653 150.319 55.6653Z" fill="#0EA9B0"/>
</g>
<defs>
<clipPath id="clip0_305_55">
<rect width="293" height="390" fill="white"/>
</clipPath>
</defs>
</svg>
