<svg width="390" height="373" viewBox="0 0 390 373" fill="none" xmlns="http://www.w3.org/2000/svg">
<g clip-path="url(#clip0_305_71)">
<path d="M388.097 193.792C383.793 205.543 373.134 213.136 360.927 213.136H350.996V359.678C350.996 367.032 345.171 373 337.995 373H259.999V279.746C259.999 243.017 230.843 213.136 195.002 213.136C159.163 213.136 130.006 243.017 130.006 279.746V373H52.009C44.8334 373 39.0097 367.032 39.0097 359.678V213.136H29.0651C16.8587 213.136 6.19916 205.556 1.89636 193.806C-2.40644 182.055 0.752416 169.133 9.956 160.9L161.776 13.5585C180.417 -4.5195 209.602 -4.5195 228.23 13.5585L380.414 161.246C389.228 169.12 392.398 182.042 388.097 193.792Z" fill="#0EA9B0"/>
</g>
<defs>
<clipPath id="clip0_305_71">
<rect width="390" height="373" fill="white"/>
</clipPath>
</defs>
</svg>
