<svg width="352" height="351" viewBox="0 0 352 351" fill="none" xmlns="http://www.w3.org/2000/svg">
<g clip-path="url(#clip0_305_75)">
<path d="M350.148 4.7628C350.005 4.06922 349.667 3.43085 349.172 2.9225C348.678 2.41416 348.05 2.0569 347.359 1.89261C301.339 -9.33718 195.007 30.6807 137.397 88.155C127.122 98.3274 117.755 109.374 109.402 121.17C91.6366 119.601 73.8713 120.911 58.7304 127.498C16.0104 146.264 3.57237 195.23 0.107315 216.294C-0.0892287 217.446 -0.0150922 218.63 0.323891 219.749C0.662875 220.869 1.25746 221.894 2.06088 222.745C2.86432 223.597 3.85467 224.25 4.95407 224.656C6.05346 225.059 7.2319 225.204 8.39673 225.077L76.9984 217.524C77.0475 222.688 77.3594 227.844 77.9334 232.974C78.2787 236.537 79.8633 239.866 82.4122 242.385L108.977 268.835C111.503 271.376 114.838 272.957 118.406 273.306C123.518 273.876 128.655 274.188 133.799 274.238L126.271 342.621C126.146 343.783 126.292 344.959 126.698 346.055C127.103 347.153 127.758 348.139 128.611 348.941C129.463 349.742 130.491 350.335 131.611 350.674C132.732 351.014 133.917 351.09 135.071 350.895C156.137 347.523 205.284 335.109 223.976 292.471C230.576 277.36 231.929 259.715 230.404 242.071C242.25 233.733 253.348 224.381 263.57 214.122C321.358 156.734 361.226 52.9757 350.148 4.7628ZM205.912 145.661C200.636 140.397 197.042 133.69 195.583 126.388C194.127 119.085 194.872 111.516 197.726 104.636C200.579 97.7564 205.414 91.8762 211.617 87.7389C217.82 83.6018 225.112 81.3934 232.572 81.3934C240.033 81.3934 247.325 83.6018 253.528 87.7389C259.731 91.8762 264.565 97.7564 267.418 104.636C270.271 111.516 271.019 119.085 269.56 126.388C268.103 133.69 264.508 140.397 259.232 145.661C255.732 149.158 251.576 151.933 247.002 153.826C242.428 155.719 237.524 156.693 232.572 156.693C227.621 156.693 222.716 155.719 218.142 153.826C213.568 151.933 209.413 149.158 205.912 145.661Z" fill="#0EA9B0"/>
<path d="M107.17 287.994C102.864 292.299 95.9581 293.976 87.645 295.412C68.9683 298.588 52.4759 282.481 55.8308 263.636C57.1117 256.492 60.8989 246.478 63.2561 244.125C63.7712 243.622 64.1142 242.968 64.2362 242.258C64.358 241.549 64.2528 240.817 63.9352 240.17C63.6179 239.525 63.1043 238.994 62.4674 238.655C61.8307 238.316 61.1032 238.185 60.3881 238.282C49.944 239.558 40.2275 244.285 32.7856 251.708C14.3132 270.161 12.5688 338.629 12.5688 338.629C12.5688 338.629 81.2099 336.888 99.6822 318.437C107.144 311.015 111.885 301.303 113.142 290.864C113.433 287.586 109.433 285.634 107.17 287.994Z" fill="#0EA9B0"/>
</g>
<defs>
<clipPath id="clip0_305_75">
<rect width="352" height="351" fill="white"/>
</clipPath>
</defs>
</svg>
